<svg xmlns="http://www.w3.org/2000/svg">1<symbol viewBox="0 0 9 8.333333" id="src-1">
<path d="M4.33333 8.33332L1 4.99999M1 4.99999L4.33333 1.66666M1 4.99999L9 4.99999" stroke="#2CB7B0" stroke-width="1.5" stroke-linecap="round" stroke-linejoin="round"/>
</symbol>2<symbol viewBox="0 0 12.333333 13" id="src-2">
<path d="M9.00002 10.3333H12.3334L11.3967 9.39671C11.1427 9.1427 11 8.79819 11 8.43897V6.33334C11 4.59171 9.88694 3.11006 8.33335 2.56094V2.33333C8.33335 1.59695 7.7364 1 7.00002 1C6.26364 1 5.66669 1.59695 5.66669 2.33333V2.56094C4.1131 3.11006 3.00002 4.59171 3.00002 6.33334V8.43897C3.00002 8.79819 2.85732 9.1427 2.60331 9.39671L1.66669 10.3333H5.00002M9.00002 10.3333V11C9.00002 12.1046 8.10459 13 7.00002 13C5.89545 13 5.00002 12.1046 5.00002 11V10.3333M9.00002 10.3333H5.00002" stroke="white" stroke-width="1.5" stroke-linecap="round" stroke-linejoin="round"/>
</symbol>3<symbol viewBox="0 0 13.333333 13.333333" id="src-3">
<path d="M8.00008 2.66667V13.3333M13.3334 8.00001L2.66675 8" stroke="white" stroke-width="1.5" stroke-linecap="round" stroke-linejoin="round"/>
</symbol></svg>